<!-- Generated by IcoMoon.io -->
<svg version="1.1" xmlns="http://www.w3.org/2000/svg" width="32" height="32" viewBox="0 0 32 32">
<title>Brain</title>
<path fill="#fff" d="M13.073 1.748c1.744 0 3.161 1.417 3.161 3.161v22.578c0 1.744-1.417 3.161-3.161 3.161-1.631 0-2.975-1.236-3.144-2.828-0.293 0.079-0.604 0.119-0.92 0.119-1.992 0-3.612-1.62-3.612-3.612 0-0.418 0.073-0.824 0.203-1.197-1.705-0.643-2.913-2.292-2.913-4.222 0-1.801 1.056-3.358 2.585-4.081-0.491-0.615-0.779-1.394-0.779-2.241 0-1.733 1.219-3.178 2.845-3.533-0.090-0.31-0.135-0.643-0.135-0.982 0-1.688 1.163-3.11 2.726-3.505 0.169-1.58 1.513-2.817 3.144-2.817zM21.201 1.748c1.631 0 2.969 1.236 3.144 2.817 1.569 0.395 2.726 1.812 2.726 3.505 0 0.339-0.045 0.672-0.135 0.982 1.626 0.35 2.845 1.801 2.845 3.533 0 0.847-0.288 1.626-0.779 2.241 1.53 0.722 2.585 2.28 2.585 4.081 0 1.93-1.208 3.579-2.913 4.222 0.13 0.373 0.203 0.779 0.203 1.197 0 1.992-1.62 3.612-3.612 3.612-0.316 0-0.627-0.040-0.92-0.119-0.169 1.592-1.513 2.828-3.144 2.828-1.744 0-3.161-1.417-3.161-3.161v-22.578c0-1.744 1.417-3.161 3.161-3.161z"></path>
</svg>
