<!-- Generated by IcoMoon.io -->
<svg version="1.1" xmlns="http://www.w3.org/2000/svg" width="23" height="32" viewBox="0 0 23 32">
<title>Calculator</title>
<path fill="#fff" d="M3.93 0.927c-2.079 0-3.769 1.69-3.769 3.769v22.615c0 2.079 1.69 3.769 3.769 3.769h15.076c2.079 0 3.769-1.69 3.769-3.769v-22.615c0-2.079-1.69-3.769-3.769-3.769h-15.076zM5.815 4.696h11.307c1.042 0 1.885 0.842 1.885 1.885v1.885c0 1.042-0.842 1.885-1.885 1.885h-11.307c-1.042 0-1.885-0.842-1.885-1.885v-1.885c0-1.042 0.842-1.885 1.885-1.885zM3.93 14.119c0-1.042 0.842-1.885 1.885-1.885s1.885 0.842 1.885 1.885c0 1.042-0.842 1.885-1.885 1.885s-1.885-0.842-1.885-1.885zM5.815 17.888c1.042 0 1.885 0.842 1.885 1.885s-0.842 1.885-1.885 1.885-1.885-0.842-1.885-1.885c0-1.042 0.842-1.885 1.885-1.885zM3.93 25.426c0-1.042 0.842-1.885 1.885-1.885h5.654c1.042 0 1.885 0.842 1.885 1.885s-0.842 1.885-1.885 1.885h-5.654c-1.042 0-1.885-0.842-1.885-1.885zM11.468 12.234c1.042 0 1.885 0.842 1.885 1.885s-0.842 1.885-1.885 1.885c-1.042 0-1.885-0.842-1.885-1.885s0.842-1.885 1.885-1.885zM9.584 19.772c0-1.042 0.842-1.885 1.885-1.885s1.885 0.842 1.885 1.885c0 1.042-0.842 1.885-1.885 1.885s-1.885-0.842-1.885-1.885zM17.122 12.234c1.042 0 1.885 0.842 1.885 1.885s-0.842 1.885-1.885 1.885c-1.042 0-1.885-0.842-1.885-1.885s0.842-1.885 1.885-1.885zM15.238 19.772c0-1.042 0.842-1.885 1.885-1.885s1.885 0.842 1.885 1.885c0 1.042-0.842 1.885-1.885 1.885s-1.885-0.842-1.885-1.885zM17.122 23.541c1.042 0 1.885 0.842 1.885 1.885s-0.842 1.885-1.885 1.885c-1.042 0-1.885-0.842-1.885-1.885s0.842-1.885 1.885-1.885z"></path>
</svg>
