<!-- Generated by IcoMoon.io -->
<svg version="1.1" xmlns="http://www.w3.org/2000/svg" width="32" height="32" viewBox="0 0 32 32">
<title>Connection</title>
<path fill="#fff" d="M7.685 7.91h18.023c1.819 0 3.296 1.477 3.296 3.296s-1.476 3.296-3.296 3.296h-6.158c-0.543-1.536-2.009-2.637-3.73-2.637s-3.186 1.101-3.73 2.637h-6.158c-3.275 0-5.933 2.658-5.933 5.933s2.658 5.932 5.933 5.932h18.023c0.543 1.536 2.009 2.637 3.729 2.637 2.183 0 3.955-1.772 3.955-3.955s-1.772-3.955-3.955-3.955c-1.72 0-3.186 1.101-3.729 2.637h-18.023c-1.819 0-3.296-1.477-3.296-3.296s1.477-3.296 3.296-3.296h6.158c0.543 1.536 2.009 2.637 3.73 2.637s3.186-1.101 3.73-2.637h6.158c3.275 0 5.933-2.658 5.933-5.933s-2.658-5.933-5.933-5.933h-18.023c-0.543-1.536-2.009-2.637-3.73-2.637-2.183 0-3.955 1.772-3.955 3.955s1.772 3.955 3.955 3.955c1.72 0 3.186-1.101 3.73-2.637zM15.82 14.502c0.728 0 1.318 0.591 1.318 1.318s-0.591 1.318-1.318 1.318c-0.728 0-1.318-0.591-1.318-1.318s0.591-1.318 1.318-1.318z"></path>
</svg>
