<!-- Generated by IcoMoon.io -->
<svg version="1.1" xmlns="http://www.w3.org/2000/svg" width="32" height="32" viewBox="0 0 32 32">
<title>Flag</title>
<path fill="#fff" d="M4.817 3.072v25.984c0 1.027-0.829 1.856-1.856 1.856s-1.856-0.829-1.856-1.856v-25.984c0-1.027 0.829-1.856 1.856-1.856s1.856 0.829 1.856 1.856zM7.184 20.634c-0.174 0.052-0.348 0.099-0.51 0.151v-18.786c1.479-0.412 3.306-0.783 5.104-0.783 2.117 0 3.961 0.528 5.545 0.98l0.075 0.023c1.653 0.47 3.039 0.853 4.588 0.853 1.554 0 3.068-0.394 4.234-0.818 0.574-0.209 1.038-0.418 1.357-0.568 0.157-0.075 0.278-0.139 0.36-0.18 0.041-0.023 0.064-0.035 0.081-0.046l0.012-0.006c0.574-0.325 1.282-0.325 1.85 0.012s0.922 0.945 0.922 1.607v14.848c0 0.702-0.394 1.346-1.027 1.659l-0.829-1.659c0.829 1.659 0.829 1.659 0.829 1.659h-0.006l-0.012 0.006-0.041 0.023c-0.035 0.017-0.087 0.041-0.145 0.070-0.128 0.058-0.302 0.139-0.522 0.232-0.447 0.191-1.073 0.441-1.827 0.69-1.496 0.505-3.567 1.032-5.702 1.032-2.146 0-3.782-0.545-5.162-1.003l-0.058-0.017c-1.392-0.464-2.535-0.835-4.060-0.835-1.595 0-3.486 0.406-5.058 0.858z"></path>
</svg>
