<!-- Generated by IcoMoon.io -->
<svg version="1.1" xmlns="http://www.w3.org/2000/svg" width="27" height="32" viewBox="0 0 27 32">
<title>Human</title>
<path fill="#fff" d="M19.632 3.159c0-1.503-1.195-2.723-2.667-2.723s-2.667 1.22-2.667 2.723c0 1.503 1.195 2.723 2.667 2.723s2.667-1.22 2.667-2.723zM8.834 10.392c0.55-0.562 1.3-0.879 2.084-0.879 0.106 0 0.211 0.006 0.311 0.017l-1.734 5.315c-0.517 1.588 0.094 3.336 1.489 4.226l4.79 3.058-1.412 5.037c-0.272 0.965 0.278 1.969 1.223 2.247s1.928-0.284 2.201-1.248l1.595-5.695c0.328-1.169-0.144-2.417-1.15-3.058l-3.156-2.014 1.717-4.674 0.283 0.698c0.834 2.031 2.773 3.353 4.929 3.353h1.184c0.984 0 1.778-0.811 1.778-1.815s-0.795-1.815-1.778-1.815h-1.184c-0.717 0-1.367-0.442-1.639-1.118l-0.35-0.851c-0.811-1.991-2.451-3.512-4.473-4.147l-2.706-0.851c-0.617-0.193-1.261-0.295-1.912-0.295-1.723 0-3.379 0.698-4.596 1.946l-1.289 1.31c-0.695 0.709-0.695 1.861 0 2.57s1.823 0.709 2.517 0l1.284-1.31-0.006-0.006zM6.917 20.405h-3.29c-0.984 0-1.778 0.811-1.778 1.815s0.795 1.815 1.778 1.815h3.868c1.056 0 2.012-0.635 2.44-1.617l0.639-1.469-0.528-0.34c-0.972-0.618-1.695-1.52-2.106-2.547l-1.022 2.343z"></path>
</svg>
