<!-- Generated by IcoMoon.io -->
<svg version="1.1" xmlns="http://www.w3.org/2000/svg" width="34" height="32" viewBox="0 0 34 32">
<title>Keyboard</title>
<path fill="#fff" d="M3.63 5c-2.002 0-3.63 1.628-3.63 3.63v14.518c0 2.002 1.628 3.63 3.63 3.63h25.407c2.002 0 3.63-1.628 3.63-3.63v-14.518c0-2.002-1.628-3.63-3.63-3.63h-25.407zM4.537 8.63h1.815c0.499 0 0.907 0.408 0.907 0.907v1.815c0 0.499-0.408 0.907-0.907 0.907h-1.815c-0.499 0-0.907-0.408-0.907-0.907v-1.815c0-0.499 0.408-0.907 0.907-0.907zM3.63 14.982c0-0.499 0.408-0.907 0.907-0.907h1.815c0.499 0 0.907 0.408 0.907 0.907v1.815c0 0.499-0.408 0.907-0.907 0.907h-1.815c-0.499 0-0.907-0.408-0.907-0.907v-1.815zM4.537 19.519h1.815c0.499 0 0.907 0.408 0.907 0.907v1.815c0 0.499-0.408 0.907-0.907 0.907h-1.815c-0.499 0-0.907-0.408-0.907-0.907v-1.815c0-0.499 0.408-0.907 0.907-0.907zM9.074 9.537c0-0.499 0.408-0.907 0.907-0.907h1.815c0.499 0 0.907 0.408 0.907 0.907v1.815c0 0.499-0.408 0.907-0.907 0.907h-1.815c-0.499 0-0.907-0.408-0.907-0.907v-1.815zM9.981 14.074h1.815c0.499 0 0.907 0.408 0.907 0.907v1.815c0 0.499-0.408 0.907-0.907 0.907h-1.815c-0.499 0-0.907-0.408-0.907-0.907v-1.815c0-0.499 0.408-0.907 0.907-0.907zM9.074 20.426c0-0.499 0.408-0.907 0.907-0.907h12.703c0.499 0 0.908 0.408 0.908 0.907v1.815c0 0.499-0.408 0.907-0.908 0.907h-12.703c-0.499 0-0.907-0.408-0.907-0.907v-1.815zM15.425 8.63h1.815c0.499 0 0.907 0.408 0.907 0.907v1.815c0 0.499-0.408 0.907-0.907 0.907h-1.815c-0.499 0-0.907-0.408-0.907-0.907v-1.815c0-0.499 0.408-0.907 0.907-0.907zM14.518 14.982c0-0.499 0.408-0.907 0.907-0.907h1.815c0.499 0 0.907 0.408 0.907 0.907v1.815c0 0.499-0.408 0.907-0.907 0.907h-1.815c-0.499 0-0.907-0.408-0.907-0.907v-1.815zM20.87 8.63h1.815c0.499 0 0.908 0.408 0.908 0.907v1.815c0 0.499-0.408 0.907-0.908 0.907h-1.815c-0.499 0-0.907-0.408-0.907-0.907v-1.815c0-0.499 0.408-0.907 0.907-0.907zM19.962 14.982c0-0.499 0.408-0.907 0.907-0.907h1.815c0.499 0 0.908 0.408 0.908 0.907v1.815c0 0.499-0.408 0.907-0.908 0.907h-1.815c-0.499 0-0.907-0.408-0.907-0.907v-1.815zM26.314 8.63h1.815c0.499 0 0.907 0.408 0.907 0.907v1.815c0 0.499-0.408 0.907-0.907 0.907h-1.815c-0.499 0-0.907-0.408-0.907-0.907v-1.815c0-0.499 0.408-0.907 0.907-0.907zM25.407 14.982c0-0.499 0.408-0.907 0.907-0.907h1.815c0.499 0 0.907 0.408 0.907 0.907v1.815c0 0.499-0.408 0.907-0.907 0.907h-1.815c-0.499 0-0.907-0.408-0.907-0.907v-1.815zM26.314 19.519h1.815c0.499 0 0.907 0.408 0.907 0.907v1.815c0 0.499-0.408 0.907-0.907 0.907h-1.815c-0.499 0-0.907-0.408-0.907-0.907v-1.815c0-0.499 0.408-0.907 0.907-0.907z"></path>
</svg>
