<!-- Generated by IcoMoon.io -->
<svg version="1.1" xmlns="http://www.w3.org/2000/svg" width="32" height="32" viewBox="0 0 32 32">
<title>Pencil</title>
<path fill="#fff" d="M25.214 14.994l-13.886 13.886c-0.384 0.384-0.86 0.668-1.383 0.819l-7.451 2.191c-0.488 0.145-1.017 0.012-1.377-0.355s-0.5-0.884-0.355-1.377l2.191-7.446c0.151-0.523 0.436-1 0.82-1.383l13.886-13.886 7.556 7.55zM6.283 22.76l-0.541 0.541c-0.052 0.052-0.093 0.122-0.116 0.198l-1.471 4.999 4.999-1.471c0.076-0.023 0.145-0.064 0.198-0.116l0.541-0.541h-2.679c-0.511 0-0.93-0.418-0.93-0.93v-2.679zM27.050 3.312l2.29 2.29c1.453 1.453 1.453 3.807 0 5.26l-2.813 2.813-7.556-7.55 2.813-2.813c1.453-1.453 3.807-1.453 5.26 0h0.006z"></path>
</svg>
