<!-- Generated by IcoMoon.io -->
<svg version="1.1" xmlns="http://www.w3.org/2000/svg" width="35" height="32" viewBox="0 0 35 32">
<title>Sliders</title>
<path fill="#fff" d="M28.538 9.626h-7.688v-1.922h7.688v1.922zM4.514 3.86c-1.592 0-2.883 1.291-2.883 2.883v3.844c0 1.592 1.291 2.883 2.883 2.883h24.986c1.592 0 2.883-1.291 2.883-2.883v-3.844c0-1.592-1.291-2.883-2.883-2.883h-24.986zM28.538 21.158v1.922h-15.376v-1.922h15.376zM4.514 17.314c-1.592 0-2.883 1.291-2.883 2.883v3.844c0 1.592 1.291 2.883 2.883 2.883h24.986c1.592 0 2.883-1.291 2.883-2.883v-3.844c0-1.592-1.291-2.883-2.883-2.883h-24.986z"></path>
</svg>
