<!-- Generated by IcoMoon.io -->
<svg version="1.1" xmlns="http://www.w3.org/2000/svg" width="35" height="32" viewBox="0 0 35 32">
<title>State</title>
<path fill="#fff" d="M1.744 6.070c0-1.417 1.15-2.567 2.567-2.567h5.134c1.417 0 2.567 1.15 2.567 2.567v0.856h10.269v-0.856c0-1.417 1.15-2.567 2.567-2.567h5.134c1.417 0 2.567 1.15 2.567 2.567v5.134c0 1.417-1.15 2.567-2.567 2.567h-5.134c-1.417 0-2.567-1.15-2.567-2.567v-0.856h-10.269v0.856c0 0.091-0.005 0.182-0.016 0.267l4.295 5.723h5.134c1.417 0 2.567 1.15 2.567 2.567v5.134c0 1.417-1.15 2.567-2.567 2.567h-5.134c-1.417 0-2.567-1.15-2.567-2.567v-5.134c0-0.091 0.005-0.182 0.016-0.267l-4.295-5.723h-5.134c-1.417 0-2.567-1.15-2.567-2.567v-5.134z"></path>
</svg>
