<!-- Generated by IcoMoon.io -->
<svg version="1.1" xmlns="http://www.w3.org/2000/svg" width="32" height="32" viewBox="0 0 32 32">
<title>Text</title>
<path fill="#fff" d="M21.68 22.612c0-0.507-0.411-0.918-0.918-0.918h-16.526c-0.507 0-0.918 0.411-0.918 0.918s0.411 0.918 0.918 0.918h16.526c0.507 0 0.918-0.411 0.918-0.918zM27.8 17.715c0-0.507-0.411-0.918-0.918-0.918h-22.647c-0.507 0-0.918 0.411-0.918 0.918s0.411 0.918 0.918 0.918h22.647c0.507 0 0.918-0.411 0.918-0.918zM16.783 12.818c0-0.507-0.411-0.918-0.918-0.918h-11.63c-0.507 0-0.918 0.411-0.918 0.918s0.411 0.918 0.918 0.918h11.63c0.507 0 0.918-0.411 0.918-0.918zM25.352 7.921c0-0.507-0.411-0.918-0.918-0.918h-20.199c-0.507 0-0.918 0.411-0.918 0.918s0.411 0.918 0.918 0.918h20.199c0.507 0 0.918-0.411 0.918-0.918z"></path>
</svg>
